<svg id="Layer_1" enable-background="new 0 0 512 512" height="512" viewBox="0 0 512 512" width="512" xmlns="http://www.w3.org/2000/svg"><g><path d="m96 10h320v492h-320z" fill="#b6bccf"/><path d="m136 50h240v280h-240z" fill="#ccf5fc"/><path d="m216 290v-40h-40v40h-40v40h120v-40z" fill="#00ccf2"/><path d="m336 170h40v160h-40z" fill="#d1aee5"/><path d="m296 150v-40h-40v80h40v40h40v-80z" fill="#ffee80"/><g><circle cx="258" cy="502" r="10"/><path d="m423.07 2.93c-1.86-1.86-4.44-2.93-7.07-2.93h-320c-2.63 0-5.21 1.07-7.07 2.93s-2.93 4.44-2.93 7.07v492c0 2.63 1.07 5.21 2.93 7.07s4.44 2.93 7.07 2.93h117c5.51 0 10-4.49 10-10s-4.49-10-10-10h-107v-472h300v472h-103c-5.51 0-10 4.49-10 10s4.49 10 10 10h113c2.63 0 5.21-1.07 7.07-2.93s2.93-4.44 2.93-7.07v-492c0-2.63-1.07-5.21-2.93-7.07z"/><path d="m376 340c5.523 0 10-4.477 10-10v-280c0-5.523-4.477-10-10-10h-240c-5.523 0-10 4.477-10 10v280c0 5.523 4.477 10 10 10zm-80-160h-30v-60h20v30c0 5.523 4.477 10 10 10h30v10 50h-20v-30c0-5.523-4.477-10-10-10zm70 140h-20v-90-50h20zm0-260v100h-20v-10c0-5.523-4.477-10-10-10h-30v-30c0-5.523-4.477-10-10-10h-40c-5.523 0-10 4.477-10 10v80c0 5.523 4.477 10 10 10h30v30c0 5.523 4.477 10 10 10h30v80h-60v-30c0-5.523-4.477-10-10-10h-30v-30c0-5.523-4.477-10-10-10h-40c-5.523 0-10 4.477-10 10v30h-20v-220zm-220 260v-20h30c5.523 0 10-4.477 10-10v-30h20v30c0 5.523 4.477 10 10 10h30v20z"/><path d="m376 412h-50c-5.523 0-10 4.477-10 10s4.477 10 10 10h50c5.523 0 10-4.477 10-10s-4.477-10-10-10z"/><path d="m136 412c-5.523 0-10 4.477-10 10s4.477 10 10 10h10c5.523 0 10-4.477 10-10s-4.477-10-10-10z"/><path d="m216 412h-10c-5.523 0-10 4.477-10 10s4.477 10 10 10h10c5.523 0 10-4.477 10-10s-4.477-10-10-10z"/><circle cx="376" cy="462" r="10"/><circle cx="326" cy="462" r="10"/><path d="m186 382c0-5.523-4.477-10-10-10s-10 4.477-10 10v10c0 5.523 4.477 10 10 10s10-4.477 10-10z"/><path d="m176 442c-5.523 0-10 4.477-10 10v10c0 5.523 4.477 10 10 10s10-4.477 10-10v-10c0-5.523-4.477-10-10-10z"/></g></g></svg>